<?xml version="1.0" encoding="UTF-8" standalone="no"?>
<!-- Created with Inkscape (http://www.inkscape.org/) -->

<svg
   xmlns:dc="http://purl.org/dc/elements/1.1/"
   xmlns:cc="http://creativecommons.org/ns#"
   xmlns:rdf="http://www.w3.org/1999/02/22-rdf-syntax-ns#"
   xmlns:svg="http://www.w3.org/2000/svg"
   xmlns="http://www.w3.org/2000/svg"
   xmlns:xlink="http://www.w3.org/1999/xlink"
   xmlns:sodipodi="http://sodipodi.sourceforge.net/DTD/sodipodi-0.dtd"
   xmlns:inkscape="http://www.inkscape.org/namespaces/inkscape"
   width="210mm"
   height="297mm"
   viewBox="0 0 744.09448819 1052.3622047"
   id="svg2"
   version="1.1"
   inkscape:version="0.91 r13725"
   sodipodi:docname="diagram-arch-server-CH.svg">
  <defs
     id="defs4">
    <marker
       inkscape:isstock="true"
       style="overflow:visible"
       id="marker12181"
       refX="0.0"
       refY="0.0"
       orient="auto"
       inkscape:stockid="DotM">
      <path
         transform="scale(0.4) translate(7.4, 1)"
         style="fill-rule:evenodd;stroke:#000000;stroke-width:1pt;stroke-opacity:1;fill:#000000;fill-opacity:1"
         d="M -2.5,-1.0 C -2.5,1.7600000 -4.7400000,4.0 -7.5,4.0 C -10.260000,4.0 -12.5,1.7600000 -12.5,-1.0 C -12.5,-3.7600000 -10.260000,-6.0 -7.5,-6.0 C -4.7400000,-6.0 -2.5,-3.7600000 -2.5,-1.0 z "
         id="path12183" />
    </marker>
    <marker
       inkscape:isstock="true"
       style="overflow:visible"
       id="marker12063"
       refX="0.0"
       refY="0.0"
       orient="auto"
       inkscape:stockid="DotM">
      <path
         transform="scale(0.4) translate(7.4, 1)"
         style="fill-rule:evenodd;stroke:#000000;stroke-width:1pt;stroke-opacity:1;fill:#000000;fill-opacity:1"
         d="M -2.5,-1.0 C -2.5,1.7600000 -4.7400000,4.0 -7.5,4.0 C -10.260000,4.0 -12.5,1.7600000 -12.5,-1.0 C -12.5,-3.7600000 -10.260000,-6.0 -7.5,-6.0 C -4.7400000,-6.0 -2.5,-3.7600000 -2.5,-1.0 z "
         id="path12065" />
    </marker>
    <marker
       inkscape:stockid="DotM"
       orient="auto"
       refY="0.0"
       refX="0.0"
       id="marker10689"
       style="overflow:visible"
       inkscape:isstock="true"
       inkscape:collect="always">
      <path
         id="path10691"
         d="M -2.5,-1.0 C -2.5,1.7600000 -4.7400000,4.0 -7.5,4.0 C -10.260000,4.0 -12.5,1.7600000 -12.5,-1.0 C -12.5,-3.7600000 -10.260000,-6.0 -7.5,-6.0 C -4.7400000,-6.0 -2.5,-3.7600000 -2.5,-1.0 z "
         style="fill-rule:evenodd;stroke:#000000;stroke-width:1pt;stroke-opacity:1;fill:#000000;fill-opacity:1"
         transform="scale(0.4) translate(7.4, 1)" />
    </marker>
    <marker
       inkscape:stockid="DotM"
       orient="auto"
       refY="0.0"
       refX="0.0"
       id="marker10583"
       style="overflow:visible"
       inkscape:isstock="true"
       inkscape:collect="always">
      <path
         id="path10585"
         d="M -2.5,-1.0 C -2.5,1.7600000 -4.7400000,4.0 -7.5,4.0 C -10.260000,4.0 -12.5,1.7600000 -12.5,-1.0 C -12.5,-3.7600000 -10.260000,-6.0 -7.5,-6.0 C -4.7400000,-6.0 -2.5,-3.7600000 -2.5,-1.0 z "
         style="fill-rule:evenodd;stroke:#000000;stroke-width:1pt;stroke-opacity:1;fill:#000000;fill-opacity:1"
         transform="scale(0.4) translate(7.4, 1)" />
    </marker>
    <marker
       inkscape:isstock="true"
       style="overflow:visible"
       id="marker9749"
       refX="0.0"
       refY="0.0"
       orient="auto"
       inkscape:stockid="DotM"
       inkscape:collect="always">
      <path
         transform="scale(0.4) translate(7.4, 1)"
         style="fill-rule:evenodd;stroke:#000000;stroke-width:1pt;stroke-opacity:1;fill:#000000;fill-opacity:1"
         d="M -2.5,-1.0 C -2.5,1.7600000 -4.7400000,4.0 -7.5,4.0 C -10.260000,4.0 -12.5,1.7600000 -12.5,-1.0 C -12.5,-3.7600000 -10.260000,-6.0 -7.5,-6.0 C -4.7400000,-6.0 -2.5,-3.7600000 -2.5,-1.0 z "
         id="path9751" />
    </marker>
    <marker
       inkscape:isstock="true"
       style="overflow:visible"
       id="marker9655"
       refX="0.0"
       refY="0.0"
       orient="auto"
       inkscape:stockid="DotM"
       inkscape:collect="always">
      <path
         transform="scale(0.4) translate(7.4, 1)"
         style="fill-rule:evenodd;stroke:#000000;stroke-width:1pt;stroke-opacity:1;fill:#000000;fill-opacity:1"
         d="M -2.5,-1.0 C -2.5,1.7600000 -4.7400000,4.0 -7.5,4.0 C -10.260000,4.0 -12.5,1.7600000 -12.5,-1.0 C -12.5,-3.7600000 -10.260000,-6.0 -7.5,-6.0 C -4.7400000,-6.0 -2.5,-3.7600000 -2.5,-1.0 z "
         id="path9657" />
    </marker>
    <marker
       inkscape:stockid="DotM"
       orient="auto"
       refY="0.0"
       refX="0.0"
       id="marker8821"
       style="overflow:visible"
       inkscape:isstock="true"
       inkscape:collect="always">
      <path
         id="path8823"
         d="M -2.5,-1.0 C -2.5,1.7600000 -4.7400000,4.0 -7.5,4.0 C -10.260000,4.0 -12.5,1.7600000 -12.5,-1.0 C -12.5,-3.7600000 -10.260000,-6.0 -7.5,-6.0 C -4.7400000,-6.0 -2.5,-3.7600000 -2.5,-1.0 z "
         style="fill-rule:evenodd;stroke:#000000;stroke-width:1pt;stroke-opacity:1;fill:#000000;fill-opacity:1"
         transform="scale(0.4) translate(7.4, 1)" />
    </marker>
    <marker
       inkscape:stockid="DotM"
       orient="auto"
       refY="0.0"
       refX="0.0"
       id="marker8739"
       style="overflow:visible"
       inkscape:isstock="true"
       inkscape:collect="always">
      <path
         id="path8741"
         d="M -2.5,-1.0 C -2.5,1.7600000 -4.7400000,4.0 -7.5,4.0 C -10.260000,4.0 -12.5,1.7600000 -12.5,-1.0 C -12.5,-3.7600000 -10.260000,-6.0 -7.5,-6.0 C -4.7400000,-6.0 -2.5,-3.7600000 -2.5,-1.0 z "
         style="fill-rule:evenodd;stroke:#000000;stroke-width:1pt;stroke-opacity:1;fill:#000000;fill-opacity:1"
         transform="scale(0.4) translate(7.4, 1)" />
    </marker>
    <marker
       inkscape:isstock="true"
       style="overflow:visible"
       id="marker8025"
       refX="0.0"
       refY="0.0"
       orient="auto"
       inkscape:stockid="DotM"
       inkscape:collect="always">
      <path
         transform="scale(0.4) translate(7.4, 1)"
         style="fill-rule:evenodd;stroke:#000000;stroke-width:1pt;stroke-opacity:1;fill:#000000;fill-opacity:1"
         d="M -2.5,-1.0 C -2.5,1.7600000 -4.7400000,4.0 -7.5,4.0 C -10.260000,4.0 -12.5,1.7600000 -12.5,-1.0 C -12.5,-3.7600000 -10.260000,-6.0 -7.5,-6.0 C -4.7400000,-6.0 -2.5,-3.7600000 -2.5,-1.0 z "
         id="path8027" />
    </marker>
    <marker
       inkscape:isstock="true"
       style="overflow:visible"
       id="marker7955"
       refX="0.0"
       refY="0.0"
       orient="auto"
       inkscape:stockid="DotM"
       inkscape:collect="always">
      <path
         transform="scale(0.4) translate(7.4, 1)"
         style="fill-rule:evenodd;stroke:#000000;stroke-width:1pt;stroke-opacity:1;fill:#000000;fill-opacity:1"
         d="M -2.5,-1.0 C -2.5,1.7600000 -4.7400000,4.0 -7.5,4.0 C -10.260000,4.0 -12.5,1.7600000 -12.5,-1.0 C -12.5,-3.7600000 -10.260000,-6.0 -7.5,-6.0 C -4.7400000,-6.0 -2.5,-3.7600000 -2.5,-1.0 z "
         id="path7957" />
    </marker>
    <marker
       inkscape:stockid="DotM"
       orient="auto"
       refY="0.0"
       refX="0.0"
       id="marker6029"
       style="overflow:visible"
       inkscape:isstock="true"
       inkscape:collect="always">
      <path
         id="path6031"
         d="M -2.5,-1.0 C -2.5,1.7600000 -4.7400000,4.0 -7.5,4.0 C -10.260000,4.0 -12.5,1.7600000 -12.5,-1.0 C -12.5,-3.7600000 -10.260000,-6.0 -7.5,-6.0 C -4.7400000,-6.0 -2.5,-3.7600000 -2.5,-1.0 z "
         style="fill-rule:evenodd;stroke:#000000;stroke-width:1pt;stroke-opacity:1;fill:#000000;fill-opacity:1"
         transform="scale(0.4) translate(7.4, 1)" />
    </marker>
    <marker
       inkscape:stockid="DotM"
       orient="auto"
       refY="0.0"
       refX="0.0"
       id="marker5971"
       style="overflow:visible"
       inkscape:isstock="true"
       inkscape:collect="always">
      <path
         id="path5973"
         d="M -2.5,-1.0 C -2.5,1.7600000 -4.7400000,4.0 -7.5,4.0 C -10.260000,4.0 -12.5,1.7600000 -12.5,-1.0 C -12.5,-3.7600000 -10.260000,-6.0 -7.5,-6.0 C -4.7400000,-6.0 -2.5,-3.7600000 -2.5,-1.0 z "
         style="fill-rule:evenodd;stroke:#000000;stroke-width:1pt;stroke-opacity:1;fill:#000000;fill-opacity:1"
         transform="scale(0.4) translate(7.4, 1)" />
    </marker>
    <marker
       inkscape:isstock="true"
       style="overflow:visible"
       id="marker4489"
       refX="0.0"
       refY="0.0"
       orient="auto"
       inkscape:stockid="DotM"
       inkscape:collect="always">
      <path
         transform="scale(0.4) translate(7.4, 1)"
         style="fill-rule:evenodd;stroke:#000000;stroke-width:1pt;stroke-opacity:1;fill:#000000;fill-opacity:1"
         d="M -2.5,-1.0 C -2.5,1.7600000 -4.7400000,4.0 -7.5,4.0 C -10.260000,4.0 -12.5,1.7600000 -12.5,-1.0 C -12.5,-3.7600000 -10.260000,-6.0 -7.5,-6.0 C -4.7400000,-6.0 -2.5,-3.7600000 -2.5,-1.0 z "
         id="path4491" />
    </marker>
    <marker
       inkscape:isstock="true"
       style="overflow:visible"
       id="marker4443"
       refX="0.0"
       refY="0.0"
       orient="auto"
       inkscape:stockid="DotM"
       inkscape:collect="always">
      <path
         transform="scale(0.4) translate(7.4, 1)"
         style="fill-rule:evenodd;stroke:#000000;stroke-width:1pt;stroke-opacity:1;fill:#000000;fill-opacity:1"
         d="M -2.5,-1.0 C -2.5,1.7600000 -4.7400000,4.0 -7.5,4.0 C -10.260000,4.0 -12.5,1.7600000 -12.5,-1.0 C -12.5,-3.7600000 -10.260000,-6.0 -7.5,-6.0 C -4.7400000,-6.0 -2.5,-3.7600000 -2.5,-1.0 z "
         id="path4445" />
    </marker>
    <linearGradient
       inkscape:collect="always"
       id="linearGradient4421">
      <stop
         style="stop-color:#f91432;stop-opacity:1;"
         offset="0"
         id="stop4423" />
      <stop
         style="stop-color:#f91432;stop-opacity:0;"
         offset="1"
         id="stop4425" />
    </linearGradient>
    <marker
       inkscape:stockid="DotM"
       orient="auto"
       refY="0.0"
       refX="0.0"
       id="marker5912"
       style="overflow:visible"
       inkscape:isstock="true"
       inkscape:collect="always">
      <path
         id="path5914"
         d="M -2.5,-1.0 C -2.5,1.7600000 -4.7400000,4.0 -7.5,4.0 C -10.260000,4.0 -12.5,1.7600000 -12.5,-1.0 C -12.5,-3.7600000 -10.260000,-6.0 -7.5,-6.0 C -4.7400000,-6.0 -2.5,-3.7600000 -2.5,-1.0 z "
         style="fill-rule:evenodd;stroke:#000000;stroke-width:1pt;stroke-opacity:1;fill:#000000;fill-opacity:1"
         transform="scale(0.4) translate(7.4, 1)" />
    </marker>
    <marker
       inkscape:stockid="DotM"
       orient="auto"
       refY="0.0"
       refX="0.0"
       id="marker5878"
       style="overflow:visible"
       inkscape:isstock="true"
       inkscape:collect="always">
      <path
         id="path5880"
         d="M -2.5,-1.0 C -2.5,1.7600000 -4.7400000,4.0 -7.5,4.0 C -10.260000,4.0 -12.5,1.7600000 -12.5,-1.0 C -12.5,-3.7600000 -10.260000,-6.0 -7.5,-6.0 C -4.7400000,-6.0 -2.5,-3.7600000 -2.5,-1.0 z "
         style="fill-rule:evenodd;stroke:#000000;stroke-width:1pt;stroke-opacity:1;fill:#000000;fill-opacity:1"
         transform="scale(0.4) translate(7.4, 1)" />
    </marker>
    <marker
       inkscape:isstock="true"
       style="overflow:visible"
       id="marker4636"
       refX="0.0"
       refY="0.0"
       orient="auto"
       inkscape:stockid="DotM"
       inkscape:collect="always">
      <path
         transform="scale(0.4) translate(7.4, 1)"
         style="fill-rule:evenodd;stroke:#000000;stroke-width:1pt;stroke-opacity:1;fill:#000000;fill-opacity:1"
         d="M -2.5,-1.0 C -2.5,1.7600000 -4.7400000,4.0 -7.5,4.0 C -10.260000,4.0 -12.5,1.7600000 -12.5,-1.0 C -12.5,-3.7600000 -10.260000,-6.0 -7.5,-6.0 C -4.7400000,-6.0 -2.5,-3.7600000 -2.5,-1.0 z "
         id="path4638" />
    </marker>
    <marker
       inkscape:isstock="true"
       style="overflow:visible"
       id="marker4614"
       refX="0.0"
       refY="0.0"
       orient="auto"
       inkscape:stockid="DotM"
       inkscape:collect="always">
      <path
         transform="scale(0.4) translate(7.4, 1)"
         style="fill-rule:evenodd;stroke:#000000;stroke-width:1pt;stroke-opacity:1;fill:#000000;fill-opacity:1"
         d="M -2.5,-1.0 C -2.5,1.7600000 -4.7400000,4.0 -7.5,4.0 C -10.260000,4.0 -12.5,1.7600000 -12.5,-1.0 C -12.5,-3.7600000 -10.260000,-6.0 -7.5,-6.0 C -4.7400000,-6.0 -2.5,-3.7600000 -2.5,-1.0 z "
         id="path4616" />
    </marker>
    <marker
       inkscape:stockid="DotM"
       orient="auto"
       refY="0.0"
       refX="0.0"
       id="DotM"
       style="overflow:visible"
       inkscape:isstock="true"
       inkscape:collect="always">
      <path
         id="path4346"
         d="M -2.5,-1.0 C -2.5,1.7600000 -4.7400000,4.0 -7.5,4.0 C -10.260000,4.0 -12.5,1.7600000 -12.5,-1.0 C -12.5,-3.7600000 -10.260000,-6.0 -7.5,-6.0 C -4.7400000,-6.0 -2.5,-3.7600000 -2.5,-1.0 z "
         style="fill-rule:evenodd;stroke:#000000;stroke-width:1pt;stroke-opacity:1;fill:#000000;fill-opacity:1"
         transform="scale(0.4) translate(7.4, 1)" />
    </marker>
    <linearGradient
       inkscape:collect="always"
       xlink:href="#linearGradient4421"
       id="linearGradient4427"
       x1="77.117862"
       y1="163.72715"
       x2="404.57217"
       y2="163.72715"
       gradientUnits="userSpaceOnUse" />
  </defs>
  <sodipodi:namedview
     id="base"
     pagecolor="#ffffff"
     bordercolor="#666666"
     borderopacity="1.0"
     inkscape:pageopacity="0.0"
     inkscape:pageshadow="2"
     inkscape:zoom="0.84286569"
     inkscape:cx="235.32033"
     inkscape:cy="526.1811"
     inkscape:document-units="px"
     inkscape:current-layer="layer2"
     showgrid="false"
     inkscape:window-width="1865"
     inkscape:window-height="1056"
     inkscape:window-x="55"
     inkscape:window-y="1409"
     inkscape:window-maximized="1"
     inkscape:snap-global="true"
     inkscape:snap-bbox="true"
     inkscape:bbox-paths="true"
     inkscape:bbox-nodes="false"
     inkscape:snap-bbox-edge-midpoints="false"
     inkscape:snap-bbox-midpoints="false" />
  <metadata
     id="metadata7">
    <rdf:RDF>
      <cc:Work
         rdf:about="">
        <dc:format>image/svg+xml</dc:format>
        <dc:type
           rdf:resource="http://purl.org/dc/dcmitype/StillImage" />
        <dc:title></dc:title>
      </cc:Work>
    </rdf:RDF>
  </metadata>
  <g
     inkscape:label="Layer 1"
     inkscape:groupmode="layer"
     id="layer1">
    <path
       style="opacity:0.75;fill:#778899;fill-rule:evenodd;stroke:#000000;stroke-width:1.30200005;stroke-linecap:butt;stroke-linejoin:miter;stroke-miterlimit:4;stroke-dasharray:5.208, 2.604;stroke-dashoffset:0;stroke-opacity:1"
       d="m 50,181.7112 c 650,0 650,0 650,0 l 0,0"
       id="line-separator-internet-webserver"
       inkscape:connector-curvature="0"
       inkscape:label="#path3422" />
    <path
       inkscape:connector-curvature="0"
       id="line-separator-webserver-middleware"
       d="m 50,401.7112 c 650,0 650,0 650,0 l 0,0"
       style="opacity:0.75;fill:#778899;fill-rule:evenodd;stroke:#000000;stroke-width:1.30200005;stroke-linecap:butt;stroke-linejoin:miter;stroke-miterlimit:4;stroke-dasharray:5.208, 2.604;stroke-dashoffset:0;stroke-opacity:1"
       inkscape:label="#path4224" />
    <path
       style="opacity:0.75;fill:#778899;fill-rule:evenodd;stroke:#000000;stroke-width:1.30200005;stroke-linecap:butt;stroke-linejoin:miter;stroke-miterlimit:4;stroke-dasharray:5.208, 2.604;stroke-dashoffset:0;stroke-opacity:1"
       d="m 50,701.7112 c 650.00001,0 650.00001,0 650.00001,0 l 0,0"
       id="line-separator-middleware-data"
       inkscape:connector-curvature="0"
       inkscape:label="#path4226" />
    <path
       inkscape:connector-curvature="0"
       id="line-separator-data-record"
       d="m 50,901.7112 c 650.00001,0 650.00001,0 650.00001,0 l 0,0"
       style="opacity:0.75;fill:#778899;fill-rule:evenodd;stroke:#000000;stroke-width:1.30200005;stroke-linecap:butt;stroke-linejoin:miter;stroke-miterlimit:4;stroke-dasharray:5.208, 2.60400000000000009;stroke-dashoffset:0;stroke-opacity:1"
       inkscape:label="#path4228" />
  </g>
  <g
     inkscape:groupmode="layer"
     id="layer2"
     inkscape:label="Layer 2">
    <ellipse
       style="opacity:0.3;fill:#00ffff;fill-rule:evenodd;stroke:#000000;stroke-width:1.43979323px;stroke-linecap:butt;stroke-linejoin:miter;stroke-opacity:1"
       id="ellipse3336"
       cx="195"
       cy="102.45577"
       rx="74.280106"
       ry="34.186535">
      <desc
         id="desc3344">client browser</desc>
      <title
         id="title3342">Client Browser</title>
    </ellipse>
    <text
       xml:space="preserve"
       style="font-style:normal;font-variant:normal;font-weight:normal;font-stretch:normal;font-size:22.08867264px;line-height:100%;font-family:'Courier New';-inkscape-font-specification:'Courier New, Normal';text-align:center;letter-spacing:0px;word-spacing:0px;writing-mode:lr-tb;text-anchor:middle;fill:#000000;fill-opacity:1;stroke:none;stroke-width:1px;stroke-linecap:butt;stroke-linejoin:miter;stroke-opacity:1"
       x="176.31717"
       y="104.88253"
       id="text3371"
       sodipodi:linespacing="100%"
       transform="scale(1.1044336,0.90544148)"><tspan
         sodipodi:role="line"
         id="tspan3373"
         x="176.31717"
         y="104.88253">Client</tspan><tspan
         sodipodi:role="line"
         x="176.31717"
         y="126.97121"
         id="tspan3375">Browser</tspan></text>
    <ellipse
       ry="34.186535"
       rx="74.280106"
       cy="102.45577"
       cx="600"
       id="ellipse3393"
       style="opacity:0.3;fill:#00ffff;fill-rule:evenodd;stroke:#000000;stroke-width:1.43979323px;stroke-linecap:butt;stroke-linejoin:miter;stroke-opacity:1">
      <desc
         id="desc3395">developer browser</desc>
      <title
         id="title3397">Developer Browser</title>
    </ellipse>
    <text
       transform="scale(1.0676538,0.9366332)"
       sodipodi:linespacing="100%"
       id="text3399"
       y="104.8642"
       x="561.1828"
       style="font-style:normal;font-variant:normal;font-weight:normal;font-stretch:normal;font-size:21.35315132px;line-height:100%;font-family:'Courier New';-inkscape-font-specification:'Courier New, Normal';text-align:center;letter-spacing:0px;word-spacing:0px;writing-mode:lr-tb;text-anchor:middle;fill:#000000;fill-opacity:1;stroke:none;stroke-width:1px;stroke-linecap:butt;stroke-linejoin:miter;stroke-opacity:1"
       xml:space="preserve"><tspan
         sodipodi:role="line"
         id="tspan3405"
         x="561.1828"
         y="104.8642">Developer</tspan><tspan
         sodipodi:role="line"
         id="tspan3407"
         x="561.1828"
         y="126.21735">Browser</tspan></text>
    <rect
       style="opacity:1;fill:#96c9fa;fill-opacity:1;stroke-width:1;stroke-miterlimit:4;stroke-dasharray:4, 2;stroke-dashoffset:0"
       id="server-webserver-4234-3"
       width="120"
       height="60"
       x="50"
       y="317.36221"
       inkscape:label="#rect4234" />
    <rect
       inkscape:label="#rect4234"
       y="317.36221"
       x="200"
       height="60"
       width="120"
       id="server-webserver-4264"
       style="opacity:1;fill:#96c9fa;fill-opacity:1;stroke-width:1;stroke-miterlimit:4;stroke-dasharray:4, 2;stroke-dashoffset:0" />
    <rect
       style="opacity:1;fill:#96c9fa;fill-opacity:1;stroke-width:1;stroke-miterlimit:4;stroke-dasharray:4, 2;stroke-dashoffset:0"
       id="server-webserver-4266"
       width="120"
       height="60"
       x="350"
       y="317.36221"
       inkscape:label="#rect4234" />
    <rect
       inkscape:label="#rect4234"
       y="317.36221"
       x="540"
       height="60"
       width="120"
       id="server-dev-webserver-4268"
       style="opacity:1;fill:#96c9fa;fill-opacity:1;stroke-width:1;stroke-miterlimit:4;stroke-dasharray:4, 2;stroke-dashoffset:0" />
    <path
       style="fill:none;fill-rule:evenodd;stroke:#c83214;stroke-width:1.5;stroke-linecap:butt;stroke-linejoin:miter;stroke-opacity:1;fill-opacity:1;stroke-miterlimit:4;stroke-dasharray:none;stroke-dashoffset:0"
       d="m 77.117862,163.72715 c 327.454308,0 327.454308,0 327.454308,0"
       id="line-network-internet"
       inkscape:connector-curvature="0"
       inkscape:label="#path4270">
      <desc
         id="desc4274"
         style="stroke:url(#linearGradient4427)">Open network known as the Internet</desc>
      <title
         id="title4272"
         style="stroke:url(#linearGradient4427)">Internet Network</title>
    </path>
    <path
       style="fill:none;fill-rule:evenodd;stroke:#000000;stroke-width:1px;stroke-linecap:butt;stroke-linejoin:miter;stroke-opacity:1;marker-start:url(#DotM);marker-end:url(#DotM)"
       d="m 195.76073,136.43929 c 0,26.10143 0,27.28786 0,27.28786 l 0,0"
       id="line-network-connector-4276"
       inkscape:connector-curvature="0"
       inkscape:label="#path4276" />
    <path
       inkscape:label="#path4276"
       inkscape:connector-curvature="0"
       id="line-network-connector-4612"
       d="m 132.16787,163.54723 c 0,55.16079 0,57.6681 0,57.6681 l 0,0"
       style="fill:none;fill-rule:evenodd;stroke:#000000;stroke-width:1;stroke-linecap:butt;stroke-linejoin:miter;stroke-miterlimit:4;stroke-dasharray:none;stroke-opacity:1;marker-start:url(#marker4614);marker-end:url(#marker4636)"
       inkscape:transform-center-x="-22.562144"
       inkscape:transform-center-y="-110.27931" />
    <path
       inkscape:transform-center-y="-110.27931"
       inkscape:transform-center-x="-22.562144"
       style="fill:none;fill-rule:evenodd;stroke:#000000;stroke-width:1;stroke-linecap:butt;stroke-linejoin:miter;stroke-miterlimit:4;stroke-dasharray:none;stroke-opacity:1;marker-start:url(#marker5878);marker-end:url(#marker5912)"
       d="m 336.16787,163.4701 c 0,55.16079 0,57.6681 0,57.6681 l 0,0"
       id="line-network-connector-5876"
       inkscape:connector-curvature="0"
       inkscape:label="#path4276" />
    <g
       id="grp-server-lb-http"
       inkscape:label="#g13644">
      <rect
         inkscape:label="#rect4234"
         y="220.3622"
         x="85"
         height="60"
         width="150"
         id="server-load-balancer-4234"
         style="opacity:1;fill:#faf096;fill-opacity:1;stroke-width:1;stroke-miterlimit:4;stroke-dasharray:4, 2;stroke-dashoffset:0" />
      <text
         xml:space="preserve"
         style="font-style:normal;font-variant:normal;font-weight:normal;font-stretch:normal;font-size:22.08874941px;line-height:100%;font-family:'Courier New';-inkscape-font-specification:'Courier New, Normal';text-align:center;letter-spacing:0px;word-spacing:0px;writing-mode:lr;text-anchor:middle;fill:#000000;fill-opacity:1;stroke:none;stroke-width:1px;stroke-linecap:butt;stroke-linejoin:miter;stroke-opacity:1;"
         x="144.08992"
         y="271.29465"
         id="text4221"
         sodipodi:linespacing="100%"
         transform="scale(1.1044336,0.90544148)"><tspan
           id="tspan4245"
           sodipodi:role="line">http Load</tspan><tspan
           id="tspan4247"
           sodipodi:role="line">Balancer</tspan></text>
    </g>
    <g
       id="grp-server-lb-https"
       inkscape:label="#g13638">
      <rect
         style="opacity:1;fill:#faf096;fill-opacity:1;stroke-width:1;stroke-miterlimit:4;stroke-dasharray:4, 2;stroke-dashoffset:0"
         id="server-load-balancer-4240"
         width="150"
         height="60"
         x="290.18643"
         y="220.3622"
         inkscape:label="#rect4234" />
      <text
         transform="scale(1.1044336,0.90544148)"
         sodipodi:linespacing="100%"
         id="text4231"
         y="272.60498"
         x="329.93375"
         style="font-style:normal;font-variant:normal;font-weight:normal;font-stretch:normal;font-size:22.08874941px;line-height:100%;font-family:'Courier New';-inkscape-font-specification:'Courier New, Normal';text-align:center;letter-spacing:0px;word-spacing:0px;writing-mode:lr;text-anchor:middle;fill:#000000;fill-opacity:1;stroke:none;stroke-width:1px;stroke-linecap:butt;stroke-linejoin:miter;stroke-opacity:1;"
         xml:space="preserve"><tspan
           id="tspan4241"
           sodipodi:role="line">https Load</tspan><tspan
           id="tspan4243"
           sodipodi:role="line">Balancer</tspan></text>
    </g>
    <path
       inkscape:label="#path4270"
       inkscape:connector-curvature="0"
       id="path4249"
       d="m 64.067147,297.72715 c 616.942893,0 616.942893,0 616.942893,0"
       style="fill:none;fill-rule:evenodd;stroke:#c83214;stroke-width:1.5;stroke-linecap:butt;stroke-linejoin:miter;stroke-opacity:1;stroke-miterlimit:4;stroke-dasharray:none">
      <desc
         id="desc4251">Open network known as the Internet</desc>
      <title
         id="title4253">Internet Network</title>
    </path>
    <path
       inkscape:label="#path4276"
       inkscape:connector-curvature="0"
       id="path4441"
       d="m 336.16787,279.86279 c 0,17.54672 0,18.34429 0,18.34429 l 0,0"
       style="fill:none;fill-rule:evenodd;stroke:#000000;stroke-width:1;stroke-linecap:butt;stroke-linejoin:miter;stroke-miterlimit:4;stroke-dasharray:none;stroke-opacity:1;marker-start:url(#marker4443);marker-end:url(#marker4489)"
       inkscape:transform-center-x="-22.562144"
       inkscape:transform-center-y="-35.079987" />
    <path
       inkscape:transform-center-y="-35.079987"
       inkscape:transform-center-x="-22.562144"
       style="fill:none;fill-rule:evenodd;stroke:#000000;stroke-width:1;stroke-linecap:butt;stroke-linejoin:miter;stroke-miterlimit:4;stroke-dasharray:none;stroke-opacity:1;marker-start:url(#marker5971);marker-end:url(#marker6029)"
       d="m 184.16787,279.86279 c 0,17.54672 0,18.34429 0,18.34429 l 0,0"
       id="path5969"
       inkscape:connector-curvature="0"
       inkscape:label="#path4276" />
    <path
       inkscape:label="#path4276"
       inkscape:connector-curvature="0"
       id="path7953"
       d="m 108.16787,297.86279 c 0,17.54672 0,18.34429 0,18.34429 l 0,0"
       style="fill:none;fill-rule:evenodd;stroke:#000000;stroke-width:1;stroke-linecap:butt;stroke-linejoin:miter;stroke-miterlimit:4;stroke-dasharray:none;stroke-opacity:1;marker-start:url(#marker7955);marker-end:url(#marker8025)"
       inkscape:transform-center-x="-22.562144"
       inkscape:transform-center-y="-35.079987" />
    <path
       inkscape:transform-center-y="-35.079987"
       inkscape:transform-center-x="-22.562144"
       style="fill:none;fill-rule:evenodd;stroke:#000000;stroke-width:1;stroke-linecap:butt;stroke-linejoin:miter;stroke-miterlimit:4;stroke-dasharray:none;stroke-opacity:1;marker-start:url(#marker8739);marker-end:url(#marker8821)"
       d="m 262.16787,297.86279 c 0,17.54672 0,18.34429 0,18.34429 l 0,0"
       id="path8737"
       inkscape:connector-curvature="0"
       inkscape:label="#path4276" />
    <path
       inkscape:label="#path4276"
       inkscape:connector-curvature="0"
       id="path9653"
       d="m 410.16787,297.86279 c 0,17.54672 0,18.34429 0,18.34429 l 0,0"
       style="fill:none;fill-rule:evenodd;stroke:#000000;stroke-width:1;stroke-linecap:butt;stroke-linejoin:miter;stroke-miterlimit:4;stroke-dasharray:none;stroke-opacity:1;marker-start:url(#marker9655);marker-end:url(#marker9749)"
       inkscape:transform-center-x="-22.562144"
       inkscape:transform-center-y="-35.079987" />
    <path
       inkscape:transform-center-y="-35.079987"
       inkscape:transform-center-x="-22.562144"
       style="fill:none;fill-rule:evenodd;stroke:#000000;stroke-width:1;stroke-linecap:butt;stroke-linejoin:miter;stroke-miterlimit:4;stroke-dasharray:none;stroke-opacity:1;marker-start:url(#marker10583);marker-end:url(#marker10689)"
       d="m 572.16787,297.86279 c 0,17.54672 0,18.34429 0,18.34429 l 0,0"
       id="path10581"
       inkscape:connector-curvature="0"
       inkscape:label="#path4276" />
    <path
       inkscape:label="#path4276"
       inkscape:connector-curvature="0"
       id="path12061"
       d="m 598.16787,136.89576 c 0,153.98047 0,160.9795 0,160.9795 l 0,0"
       style="fill:none;fill-rule:evenodd;stroke:#000000;stroke-width:1;stroke-linecap:butt;stroke-linejoin:miter;stroke-miterlimit:4;stroke-dasharray:none;stroke-opacity:1;marker-start:url(#marker12063);marker-end:url(#marker12181)"
       inkscape:transform-center-x="-22.562144"
       inkscape:transform-center-y="-307.84288" />
  </g>
</svg>
